<?xml version="1.0" encoding="utf-8"?>
<!-- Generator: Adobe Illustrator 16.0.0, SVG Export Plug-In . SVG Version: 6.00 Build 0)  -->
<!DOCTYPE svg PUBLIC "-//W3C//DTD SVG 1.1//EN" "http://www.w3.org/Graphics/SVG/1.1/DTD/svg11.dtd">
<svg version="1.1" id="레이어_1" xmlns="http://www.w3.org/2000/svg" xmlns:xlink="http://www.w3.org/1999/xlink" x="0px"
	 y="0px" width="500.5px" height="150.5px" viewBox="-400.5 -50.5 500.5 150.5" enable-background="new -400.5 -50.5 500.5 150.5"
	 xml:space="preserve">
<path fill="#75819A" d="M-366.395,29.485c0.572,0.165,1.152,0.342,1.724,0.509c1.389,0.392,2.791,0.783,4.18,1.183
	C-354.587,32.874-368.515,28.874-366.395,29.485z"/>
<g>
	<path fill="#75819A" d="M-246.896,22.328c-0.426,0.7-0.75,1.441-0.736,2.222c0.005,0.407-0.146,0.632,0.473,0.723
		c0.551,0.071,1.457-0.7,1.859-1.055c0.499-0.454,0.329-0.29,0.911-0.165c0.875,0.186,4.241-0.768,4.828-1.083
		c0.438-0.24,0.556-0.817,0.898-1.149c0.457-0.434,2.556-2.922,3.243-3.715c1.371-1.608,2.852-3.128,4.416-4.562
		c2.674-2.434,5.627-4.739,8.933-6.254c1.679-0.83,5.963-2.629,6.083,0.716c0.238,2.621-3.339,6.204-5.366,7.755
		c-2.237,1.71-4.295,3.201-6.896,4.42c-3.118,1.459-6.355,2.342-9.823,2.457c0,0-1.47,0.047-2.068,0.3
		c-0.992,0.407-4.481,0.329-3.587,2.308c0.869,1.909,5.771,0.841,7.159,0.452c1.248-0.355,2.53-0.601,3.789-0.906
		c3.324-0.788,6.585-2.154,9.596-3.768c3.287-1.768,6.619-4.037,8.755-7.178c2.269-3.34,2.984-9.429-1.919-11.1
		c-5.146-1.716-11.34,2.029-15.434,4.757c-5.228,3.48-10.27,7.875-13.87,13.053C-246.032,21.103-246.507,21.704-246.896,22.328z"/>
	<path fill="#75819A" d="M-205.949,19.213c-0.243-0.24-0.841-0.24-1.326,0.355c-4.288,6.559-11.928,13.011-20.761,16.588
		c-7.75,3.105-16.936,2.987-13.967-7.04c0.342-1.125,0.817-2.264,1.379-3.407c-0.282-0.047-0.575-0.079-0.825-0.167
		c-1.094-0.392-1.663-0.841-2.903-0.867c-1.188-0.026-2.355,0.235-3.533,0.264c-4.977,13.886,9.635,18.335,21.408,13.609
		c8.348-3.463,15.868-10.021,20.641-17.894C-205.361,20.048-205.361,19.461-205.949,19.213z"/>
	<path fill="#75819A" d="M-208.354,24.226c-1.193,1.316-1.193-1.431-0.12-2.984c1.729-2.515,3.715-4.852,5.355-7.441
		c0.567-0.885,1.086-1.794,1.587-2.726c0.689-1.282,1.525-2.528,2.295-3.757c0.48-0.742,0.783-1.734,1.389-2.598
		c0.705-1.005,2.397-0.465,3.459-0.19c1.906,0.48,1.781,1.548,0.833,3.462c-2.984,6.559-6.799,17.181-8.238,20.999
		c5.016-6.201,15.392-17.421,21.964-22.547c7.75-5.972,13.236-3.94,8.233,5.964c-1.193,2.261-3.47,7.512-4.538,9.431
		c4.175-3.82,11.104-9.549,16.46-11.58c1.439-0.541,3.306-1.339,4.878-1.016c0.835,0.175,1.339,0.637,1.563,1.457
		c0.353,1.235-0.772,2.303-1.357,3.324c-2.546,4.395-4.643,9.254-5.792,14.202c-0.146,0.645-0.282,1.306-0.368,1.961
		c-0.71,5.131,1.679,7.875,5.494,5.849c3.935-2.146,12.891-9.669,17.779-16.581c0.595-0.838,2.148-0.13,1.545,0.948
		c-2.264,4.183-9.554,12.056-15.518,16.348c-3.932,2.859-12.763,5.731-15.152-1.434c-0.948-3.227,0.371-10.376,2.026-14.564
		c0.841-2.144,2.154-5.369,3.342-7.155c-4.53,1.784-8.379,5.149-11.826,8.51c-1.567,1.525-3.083,3.11-4.577,4.705
		c-1.36,1.439-5.982,6.522-7.055,2.802c-0.541-1.888,1.347-5.387,2.151-7.061c1.428-3.013,2.925-6.005,4.478-8.953
		c2.154-3.812,1.079-6.324-7.632,1.196c-5.157,4.703-9.188,10.698-13.334,16.264c-1.353,1.82-7.134,10.34-9.998,6.81
		c-1.478-1.819,0.802-6.384,1.439-8.204c0.671-1.943,1.337-3.885,1.992-5.828c0.339-0.992,0.684-1.984,1.023-2.984
		c0.29-0.862,0.478-2.089,0.966-2.841C-205.129,20.406-206.928,22.795-208.354,24.226z"/>
	<path fill="#75819A" d="M-132.058,11.293c0.365-0.822,0.924-1.554,1.269-2.381c0.622-1.546,1.253-3.465,2.622-4.538
		c1.044-0.812,3.457-0.068,4.063,1.12c0.705,1.431-0.606,3.695-2.402,7.395c-3.577,7.16-6.802,13.489-7.17,17.301
		c-0.835,5.128,1.559,7.875,5.499,5.849c3.812-2.141,12.763-9.669,17.787-16.578c0.585-0.841,2.026-0.128,1.42,0.945
		c-2.256,4.178-9.546,12.055-15.51,16.348c-3.812,2.864-12.651,5.731-15.04-1.437c-0.948-2.744,1.079-9.191,3.577-14.671
		c-1.081,1.308-2.146,3.094-4.64,5.963c-1.201,1.311-2.389-0.24-1.321-1.666c1.958-2.408,3.862-4.849,5.71-7.34
		c0.833-1.131,1.661-2.504,2.603-3.528c0.716-0.757,0.948-1.308,1.327-2.297C-132.188,11.615-132.264,11.784-132.058,11.293z"/>
	<path fill="#75819A" d="M-122.977-0.603c-2.36,0.859-5.034,0.961-4.517-1.264c0.141-0.626,0.501-1.076,0.977-1.491
		c0.893-0.757,1.817-1.48,2.736-2.207c0.888-0.684,4.104-3.94,5.086-1.945c0.752,1.483-0.355,3.595-1.097,4.872
		C-120.214-1.924-121.535-1.125-122.977-0.603z"/>
	<path fill="#75819A" d="M-107.655,27.331c-0.721,5.846,0.961,12.296,7.865,8.351c4.668-2.504,13.494-10.5,17.557-16.22
		c0.596-0.841,2.016-0.128,1.306,1.193c-2.392,4.17-9.901,12.045-15.865,16.46c-2.392,1.792-5.128,2.625-7.405,2.625
		c-7.165,0-9.306-4.058-9.065-9.549c0.721-11.933,15.155-40.459,22.915-50.715c4.533-5.851,9.891-13.008,18.027-13.008
		c5.358,0,9.285,4.18,5.003,11.936c-9.787,17.061-23.866,31.032-38.77,43.44C-106.934,24.226-107.54,26.143-107.655,27.331z
		 M-104.312,17.064c11.688-7.995,27.448-28.649,33.777-40.812c3.217-5.846,0.47-8.593-4.783-4.653
		c-7.27,5.614-13.358,14.197-18.487,23.393c-1.316,2.381-4.418,8.47-7.175,13.838C-102.286,11.576-103.362,14.435-104.312,17.064z"
		/>
	<path fill="#75819A" d="M-69.48,69.338c-4.408,6.559-11.437,14.555-19.562,13.123c-0.835-0.24-1.786-0.471-2.381-0.83
		c-7.52-3.697-3.948-10.861,2.381-18.268c5.974-6.914,18.382-15.149,26.143-20.283c5.473-11.22,12.408-26.607,14.204-32.095
		c-6.444,7.397-18.267,27.443-29.129,27.443c-10.622,0-9.546-10.734-6.089-17.419c2.622-5.248,5.849-9.188,9.661-12.528
		c5.254-5.019,9.672,0.593,8.126,1.786c-2.747,1.554-6.799,5.494-10.382,10.147c-1.922,2.506-6.559,12.173-3.342,14.437
		c2.151,1.671,6.329,0,9.786-3.337c4.752-4.583,9.003-9.551,13.087-14.721c2.078-2.608,4.104-5.249,6.151-7.862
		c1.974-2.506,4.617-7.755,8.491-5.499c3.04,1.799,1.849,5.629,0.658,8.274c-1.828,4.06-3.624,8.133-5.452,12.191
		c-1.556,3.478-3.112,6.938-4.721,10.405C-57.261,46.079-62.524,58.324-69.48,69.338z M-86.296,65.279
		c-9.076,9.072-5.974,19.213,2.977,12.055c9.065-7.285,13.139-19.568,18.142-29.709C-71.392,52.271-80.092,58.957-86.296,65.279z"/>
	<path fill="#75819A" d="M-242.938,20.965c-0.679,1.013-23.842,9.499-23.842,9.499c-0.165,0.063-0.337,0.133-0.504,0.193
		c-12.474,4.786-27.571,6.361-42.804,5.499c-16.711-0.94-30.714-5.499-44.529-9.567c-4.549-1.298-9.103-2.585-13.656-3.875
		c-4.19-1.188-8.16-3.063-12.441-3.998c-5.954-1.295-12.539,0.564-2.697,3.313c18,5.026,36.147,10.222,55.626,13.87
		c1.592,0.292,3.141,0.413,4.768,0.637c7.65,1.058,15.758,1.563,23.813,1.522c7.737-0.047,15.466-0.933,23.064-2.387
		c8.64-1.645,17.202-4.011,25.359-7.335c3.387-1.381,6.974-2.851,10.042-4.87C-236.666,20.785-242.397,20.166-242.938,20.965z"/>
	<path fill="#75819A" d="M-56.06,39.357c3.039-2.133,6.058-4.266,9.139-6.394c4.397-3.034,8.313-5.22,13.525-7.896
		c4.293-2.196,8.742-4.288,13.285-6.264c4.418-1.909,8.898-3.645,13.474-5.316C4.768,9.283,16.685,6.173,28.373,3.909
		c13.358-2.595,26.591-4.167,39.24-4.88c2.005-0.107,5.838-0.28,8.877-0.034c2.12,0.183,3.864,0.572,4.304,1.347
		c-4.722,1.48-11.447,1.494-15.688,1.569c-5.567,0.1-11.396,0.645-17.349,1.515c-3.353,0.496-6.768,1.091-10.173,1.814
		C23.777,8.103,10.68,10.748-3.034,15.779c-6.977,2.214-13.87,4.804-20.325,7.812c-15.677,7.321-27.333,16.053-39.678,24.832
		l-1.169-3.368C-61.491,43.149-58.754,41.253-56.06,39.357z"/>
</g>
</svg>
